<mxfile host="app.diagrams.net" modified="2022-05-26T12:27:37.201Z" agent="5.0 (Windows NT 10.0; Win64; x64) AppleWebKit/537.36 (KHTML, like Gecko) Chrome/101.0.4951.64 Safari/537.36 Edg/101.0.1210.53" etag="0xryuamoSMfobb188tP7" version="18.1.2" type="github">
  <diagram id="C5RBs43oDa-KdzZeNtuy" name="Page-1">
    <mxGraphModel dx="1247" dy="706" grid="0" gridSize="10" guides="1" tooltips="1" connect="1" arrows="1" fold="1" page="1" pageScale="1" pageWidth="1654" pageHeight="2336" background="#F4F1DE" math="0" shadow="0">
      <root>
        <mxCell id="WIyWlLk6GJQsqaUBKTNV-0" />
        <mxCell id="WIyWlLk6GJQsqaUBKTNV-1" parent="WIyWlLk6GJQsqaUBKTNV-0" />
        <mxCell id="CBt1W6F0eVTfvMk-Idz6-0" value="Channel" style="html=1;" parent="WIyWlLk6GJQsqaUBKTNV-1" vertex="1">
          <mxGeometry x="348" y="267" width="110" height="50" as="geometry" />
        </mxCell>
        <mxCell id="CBt1W6F0eVTfvMk-Idz6-1" value="ChannelSink" style="html=1;" parent="WIyWlLk6GJQsqaUBKTNV-1" vertex="1">
          <mxGeometry x="494" y="359" width="110" height="50" as="geometry" />
        </mxCell>
        <mxCell id="CBt1W6F0eVTfvMk-Idz6-2" value="ChannelPipeline" style="html=1;" parent="WIyWlLk6GJQsqaUBKTNV-1" vertex="1">
          <mxGeometry x="723" y="284" width="110" height="50" as="geometry" />
        </mxCell>
        <mxCell id="CBt1W6F0eVTfvMk-Idz6-3" value="NioWorker" style="html=1;" parent="WIyWlLk6GJQsqaUBKTNV-1" vertex="1">
          <mxGeometry x="727" y="396" width="110" height="50" as="geometry" />
        </mxCell>
      </root>
    </mxGraphModel>
  </diagram>
</mxfile>
